<svg xmlns="http://www.w3.org/2000/svg" viewBox="0 0 1539.72 192.52"><defs><style>.cls-1{fill:#314959;}.cls-2{fill:#cfed00;}</style></defs><g id="Layer_2" data-name="Layer 2"><g id="Layer_1-2" data-name="Layer 1"><path class="cls-1" d="M87.85,179.83a124.16,124.16,0,0,1-.54-13V134c0-11-1.12-20-4.4-26.43a28.8,28.8,0,0,0-8.8-10,4.41,4.41,0,0,1,.13-7.15q12.81-9.53,12.81-33.28V45.66q0-21.88-10.42-32.44T43.52,2.67H4a4,4,0,0,0-4,4V185.57a4,4,0,0,0,4,4H25.36a4,4,0,0,0,4-4v-70a6.09,6.09,0,0,1,6.09-6.09h4.06q10.14,0,14.28,5.07t4.14,17.89v34.18A130.54,130.54,0,0,0,58.47,181a40.61,40.61,0,0,0,1.22,5.68,4,4,0,0,0,3.86,2.86H84.8a4,4,0,0,0,3.9-5A38.3,38.3,0,0,1,87.85,179.83ZM57.67,63q0,10.68-4.4,15.22T40.05,82.77H35.46a6.09,6.09,0,0,1-6.09-6.09V35.46a6.09,6.09,0,0,1,6.09-6.09h7.26q7.74,0,11.35,4.54t3.6,14.69Z"/><path class="cls-1" d="M395,2.67H374.76a4,4,0,0,0-4,4V147.39q0,9.62-3.87,13.89t-11.08,4.27q-7.2,0-11.08-4.27t-3.87-13.89V6.68a4,4,0,0,0-4-4H315.48a4,4,0,0,0-4,4V145.26q0,22.69,11.21,34.84t32.58,12.15q21.36,0,32.57-12.15t11.22-34.84V6.68A4,4,0,0,0,395,2.67Z"/><path class="cls-1" d="M480.2,162.88H464.37a15.12,15.12,0,0,1-15.12-15.12V7A4.28,4.28,0,0,0,445,2.67H424.15A4.28,4.28,0,0,0,419.87,7v138a44.67,44.67,0,0,0,44.68,44.67H493.3a4.27,4.27,0,0,0,4.27-4.27v-5.06A17.37,17.37,0,0,0,480.2,162.88Z"/><path class="cls-1" d="M587.82,2.67H515.74a4,4,0,0,0-4,4V185.57a4,4,0,0,0,4,4h72.08a4,4,0,0,0,4-4v-5a17.64,17.64,0,0,0-17.64-17.64H545.11a4,4,0,0,1-4-4V109.48a4,4,0,0,1,4-4h26.17a4,4,0,0,0,4-4V82.78a4,4,0,0,0-4-4H545.11a4,4,0,0,1-4-4V33.39a4,4,0,0,1,4-4h29.08a17.63,17.63,0,0,0,17.64-17.63V6.68A4,4,0,0,0,587.82,2.67Z"/><path class="cls-1" d="M685.27,2.67H610a4,4,0,0,0-4,4v5.06a17.63,17.63,0,0,0,17.64,17.63h25.11a6.09,6.09,0,0,1,5.64,8.39l-46,113.12a69.31,69.31,0,0,0-5.09,26.06v8.63a4,4,0,0,0,4,4h77.95a4,4,0,0,0,4-4v-5a17.64,17.64,0,0,0-17.64-17.64H643.87a6.1,6.1,0,0,1-5.65-8.39l46-113.12a69.13,69.13,0,0,0,5.1-26.06V6.68A4,4,0,0,0,685.27,2.67Z"/><path class="cls-1" d="M925.31,2.67H853.24a4,4,0,0,0-4,4V185.57a4,4,0,0,0,4,4h72.07a4,4,0,0,0,4-4v-5a17.64,17.64,0,0,0-17.64-17.64H882.61a4,4,0,0,1-4-4V109.48a4,4,0,0,1,4-4h26.16a4,4,0,0,0,4-4V82.78a4,4,0,0,0-4-4H882.61a4,4,0,0,1-4-4V33.39a4,4,0,0,1,4-4h29.08a17.63,17.63,0,0,0,17.64-17.63V6.68A4,4,0,0,0,925.31,2.67Z"/><path class="cls-1" d="M1026.65,2.67h-20.28a4,4,0,0,0-4,4V147.39q0,9.62-3.87,13.89t-11.08,4.27q-7.21,0-11.08-4.27c-2.59-2.85-3.87-7.48-3.87-13.89V6.68a4,4,0,0,0-4-4H947.1a4,4,0,0,0-4,4V145.26q0,22.69,11.22,34.84t32.57,12.15q21.36,0,32.58-12.15t11.21-34.84V6.68A4,4,0,0,0,1026.65,2.67Z"/><path class="cls-1" d="M1139.6,2.67h-18.14a4,4,0,0,0-4,4V83.21a4,4,0,0,1-7.9,1L1089.83,8.5a7.76,7.76,0,0,0-7.51-5.83H1055.5a4,4,0,0,0-4,4V185.57a4,4,0,0,0,4,4h18.14a4,4,0,0,0,4-4V84.25a4,4,0,0,1,7.89-1l26.39,100.54a7.73,7.73,0,0,0,7.49,5.81h20.17a4,4,0,0,0,4-4V6.68A4,4,0,0,0,1139.6,2.67Z"/><path class="cls-1" d="M1240.59,2.67h-72.07a4,4,0,0,0-4,4V185.57a4,4,0,0,0,4,4h72.07a4,4,0,0,0,4-4v-5A17.64,17.64,0,0,0,1227,162.88h-29.08a4,4,0,0,1-4-4V109.48a4,4,0,0,1,4-4h26.17a4,4,0,0,0,4-4V82.78a4,4,0,0,0-4-4h-26.17a4,4,0,0,1-4-4V33.39a4,4,0,0,1,4-4H1227a17.63,17.63,0,0,0,17.64-17.63V6.68A4,4,0,0,0,1240.59,2.67Z"/><path class="cls-1" d="M1313.16,84.91q-14.43-12.54-19.9-21.36a35.26,35.26,0,0,1-5.47-19q0-17.88,14.69-17.89,7.2,0,10.94,4.41c2.49,2.93,3.74,7.61,3.74,14v5.6a4,4,0,0,0,4,4h19.66a4,4,0,0,0,4-3.85q1-25.56-10.74-38.74Q1323.31,0,1302.21,0q-21.36,0-32.58,12.15t-11.21,34.31a59,59,0,0,0,7.21,29.24q7.2,13,25.37,29,14.41,12.56,19.75,21.49a39.64,39.64,0,0,1,5.34,20.7q0,9.88-3.87,14.28t-11.35,4.41q-15.21,0-15.22-18.16v-8.8a4,4,0,0,0-4-4H1261.9a4,4,0,0,0-4,4v6.67q0,22.69,10.95,34.84t32.31,12.15q21.63,0,33-12.28t11.35-35.25q0-17.62-7-30.7T1313.16,84.91Z"/><path class="cls-1" d="M1413.48,84.91q-14.42-12.54-19.89-21.36a35.26,35.26,0,0,1-5.47-19q0-17.88,14.68-17.89c4.81,0,8.45,1.47,11,4.41s3.74,7.61,3.74,14v5.6a4,4,0,0,0,4,4h19.66a4,4,0,0,0,4-3.85q1-25.56-10.74-38.74Q1423.63,0,1402.53,0,1381.17,0,1370,12.15t-11.22,34.31A59.14,59.14,0,0,0,1366,75.7q7.21,13,25.37,29,14.42,12.56,19.76,21.49a39.64,39.64,0,0,1,5.34,20.7q0,9.88-3.87,14.28t-11.35,4.41q-15.23,0-15.22-18.16v-8.8a4,4,0,0,0-4-4h-19.75a4,4,0,0,0-4,4v6.67q0,22.69,11,34.84t32.31,12.15q21.63,0,33-12.28t11.35-35.25q0-17.62-6.94-30.7T1413.48,84.91Z"/><path class="cls-1" d="M1493,29.37h29a17.65,17.65,0,0,0,17.65-17.65v-5a4,4,0,0,0-4-4h-72a4,4,0,0,0-4,4V185.55a4,4,0,0,0,4,4h72a4,4,0,0,0,4-4v-5a17.65,17.65,0,0,0-17.65-17.65h-29a4,4,0,0,1-4-4V109.5a4,4,0,0,1,4-4h26.14a4,4,0,0,0,4-4V82.8a4,4,0,0,0-4-4H1493a4,4,0,0,1-4-4V33.4A4,4,0,0,1,1493,29.37Z"/><path class="cls-2" d="M197.09,0a96.25,96.25,0,1,0,96.25,96.25A96.25,96.25,0,0,0,197.09,0Zm0,164a67.74,67.74,0,1,1,67.74-67.74A67.74,67.74,0,0,1,197.09,164Z"/><path class="cls-1" d="M767.8,162.88h15.84a15.12,15.12,0,0,0,15.12-15.12V7A4.27,4.27,0,0,1,803,2.67h20.82A4.28,4.28,0,0,1,828.13,7v138a44.67,44.67,0,0,1-44.68,44.67H754.7a4.27,4.27,0,0,1-4.27-4.27v-5.06A17.37,17.37,0,0,1,767.8,162.88Z"/></g></g></svg>